<?xml version="1.0"?>
<svg width="566.93" height="170.04" xmlns="http://www.w3.org/2000/svg" xmlns:svg="http://www.w3.org/2000/svg" xmlns:xlink="http://www.w3.org/1999/xlink" enable-background="new 0 0 566.93 170.04" version="1.1" xml:space="preserve">
 <g class="layer">
  <title>Layer 1</title>
  <path d="m528.52,62.67c-5.12,0 -9.11,-4.11 -9.11,-9.11s4.04,-9.16 9.16,-9.16c5.12,0 9.11,4.11 9.11,9.11c0,4.99 -4.04,9.16 -9.16,9.16zm0.05,-17.36c-4.67,0 -8.2,3.71 -8.2,8.25c0,4.54 3.51,8.2 8.15,8.2c4.67,0 8.2,-3.71 8.2,-8.25c0,-4.54 -3.51,-8.2 -8.15,-8.2zm2.02,9.13l2.58,3.61l-2.18,0l-2.32,-3.31l-1.99,0l0,3.31l-1.82,0l0,-9.56l4.26,0c2.23,0 3.69,1.14 3.69,3.05c0.01,1.57 -0.9,2.53 -2.21,2.9l-0.01,0zm-1.54,-4.31l-2.37,0l0,3.02l2.37,0c1.18,0 1.89,-0.57 1.89,-1.51c0,-0.98 -0.71,-1.51 -1.89,-1.51z" id="svg_9"/>
  <text fill="#ffffff" font-family="Serif" font-size="24" id="svg_11" stroke-width="0" text-anchor="middle" transform="matrix(4.22868 0 0 4.88682 -775.531 -154.875)" x="266.98" xml:space="preserve" y="57.62">Musicfy</text>
  <use id="svg_13" transform="matrix(7.31199 0 0 7.19125 4.01947e-7 2.04499)" x="0.42" xlink:href="#svg_12" y="0"/>
 </g>
 <defs>
  <symbol height="24px" id="svg_12" viewBox="0 0 24 24" width="24px" xmlns="http://www.w3.org/2000/svg">
   <path d="m0,0l24,0l0,24l-24,0l0,-24z" fill="none" opacity="1"/>
   <path d="m12,1c-4.97,0 -9,4.03 -9,9l0,7c0,1.66 1.34,3 3,3l3,0l0,-8l-4,0l0,-2c0,-3.87 3.13,-7 7,-7s7,3.13 7,7l0,2l-4,0l0,8l3,0c1.66,0 3,-1.34 3,-3l0,-7c0,-4.97 -4.03,-9 -9,-9z"/>
  </symbol>
 </defs>
</svg>
